<svg width="900" height="700" viewBox="0 0 900 700" fill="none" xmlns="http://www.w3.org/2000/svg">
  <defs>
    <linearGradient id="bg2" x1="0" y1="0" x2="900" y2="700" gradientUnits="userSpaceOnUse">
      <stop stop-color="#FDF4E7"/>
      <stop offset="1" stop-color="#F5FFF8"/>
    </linearGradient>
    <linearGradient id="bar" x1="280" y1="230" x2="650" y2="520" gradientUnits="userSpaceOnUse">
      <stop stop-color="#FF6D00"/>
      <stop offset="1" stop-color="#1AA39A"/>
    </linearGradient>
  </defs>

  <rect width="900" height="700" rx="28" fill="url(#bg2)"/>
  <rect x="70" y="90" width="760" height="520" rx="24" fill="#FFFFFF" fill-opacity="0.9" stroke="#E8D5C5"/>

  <rect x="110" y="136" width="220" height="22" rx="11" fill="#FFE8D5"/>
  <rect x="110" y="178" width="154" height="14" rx="7" fill="#EFE5DD"/>

  <rect x="110" y="250" width="96" height="250" rx="20" fill="#FFE2CB"/>
  <rect x="228" y="210" width="96" height="290" rx="20" fill="#FFD1AF"/>
  <rect x="346" y="280" width="96" height="220" rx="20" fill="#FFC192"/>
  <rect x="464" y="168" width="96" height="332" rx="20" fill="#FFAC67"/>
  <rect x="582" y="120" width="96" height="380" rx="20" fill="url(#bar)"/>

  <path d="M145 533C226 455 321 438 405 479C480 516 558 482 640 380" stroke="#2E1E14" stroke-opacity="0.3" stroke-width="8" stroke-linecap="round"/>

  <circle cx="145" cy="533" r="10" fill="#2E1E14" fill-opacity="0.35"/>
  <circle cx="321" cy="438" r="10" fill="#2E1E14" fill-opacity="0.35"/>
  <circle cx="640" cy="380" r="10" fill="#2E1E14" fill-opacity="0.35"/>
</svg>
